<?xml version="1.0" encoding="UTF-8"?>
<svg xmlns="http://www.w3.org/2000/svg" xmlns:xlink="http://www.w3.org/1999/xlink" width="104pt" height="104pt" viewBox="0 0 104 104" version="1.1">
<g id="surface9153611">
<path style=" stroke:none;fill-rule:nonzero;fill:rgb(0%,0%,0%);fill-opacity:1;" d="M 52 0 C 23.203125 0 0 23.203125 0 52 C 0 80.796875 23.203125 104 52 104 C 80.796875 104 104 80.796875 104 52 C 104 23.203125 80.796875 0 52 0 Z M 73.203125 76.40625 C 72.40625 76.40625 71.59375 76 70.796875 75.59375 C 63.203125 71.203125 54 68.796875 44 68.796875 C 38.40625 68.796875 32.796875 69.59375 27.59375 70.796875 C 26.796875 70.796875 25.59375 71.203125 25.203125 71.203125 C 23.203125 71.203125 22 69.59375 22 68 C 22 66 23.203125 64.796875 24.796875 64.40625 C 31.203125 62.796875 37.59375 62 44.40625 62 C 55.59375 62 66 64.796875 74.796875 70 C 76 70.796875 76.796875 71.59375 76.796875 73.59375 C 76.40625 75.203125 74.796875 76.40625 73.203125 76.40625 Z M 78.796875 62.796875 C 77.59375 62.796875 76.796875 62.40625 76 62 C 67.59375 56.796875 56 53.59375 42.796875 53.59375 C 36.40625 53.59375 30.40625 54.40625 26 55.59375 C 24.796875 56 24.40625 56 23.59375 56 C 21.203125 56 19.59375 54 19.59375 52 C 19.59375 49.59375 20.796875 48.40625 22.796875 47.59375 C 28.796875 46 34.796875 44.796875 43.203125 44.796875 C 56.796875 44.796875 70 48 80.40625 54.40625 C 82 55.203125 82.796875 56.796875 82.796875 58.40625 C 82.796875 60.796875 81.203125 62.796875 78.796875 62.796875 Z M 85.203125 46.796875 C 84 46.796875 83.59375 46.40625 82.40625 46 C 72.796875 40.40625 58.40625 37.203125 44.40625 37.203125 C 37.203125 37.203125 30 38 23.59375 39.59375 C 22.796875 39.59375 22 40 20.796875 40 C 18 40.40625 16 38 16 35.203125 C 16 32.40625 17.59375 30.796875 19.59375 30.40625 C 27.203125 28 35.203125 27.203125 44.40625 27.203125 C 59.59375 27.203125 75.59375 30.40625 87.59375 37.203125 C 89.203125 38 90.40625 39.59375 90.40625 42 C 90 44.796875 88 46.796875 85.203125 46.796875 Z M 85.203125 46.796875 "/>
</g>
</svg>
