<?xml version="1.0" encoding="iso-8859-1"?>
<!-- Generator: Adobe Illustrator 16.0.0, SVG Export Plug-In . SVG Version: 6.00 Build 0)  -->
<!DOCTYPE svg PUBLIC "-//W3C//DTD SVG 1.1//EN" "http://www.w3.org/Graphics/SVG/1.1/DTD/svg11.dtd">
<svg version="1.1" id="Capa_1" xmlns="http://www.w3.org/2000/svg" xmlns:xlink="http://www.w3.org/1999/xlink" x="0px" y="0px"
	 width="98.73px" height="98.731px" viewBox="0 0 98.73 98.731" style="enable-background:new 0 0 98.73 98.731;"
	 xml:space="preserve">
<g>
	<path d="M83.803,45.011l-7.237-1.583c-4.978-1.131-6.445-3.167-6.445-6.559c0-3.845,3.052-6.107,8.028-6.107
		c5.43,0,8.367,2.036,8.82,6.899l11.31-1.357c-0.905-10.179-7.915-14.363-19.452-14.363c-10.177,0-20.13,3.845-20.13,16.172
		c0,7.69,3.733,12.554,13.117,14.815l7.692,1.81c5.768,1.356,7.688,3.731,7.688,7.012c0,4.185-4.067,5.88-11.761,5.88
		c-11.424,0-16.174-5.994-18.887-14.25l-3.731-11.309C48.066,27.368,40.488,21.94,25.445,21.94C8.821,21.94,0,32.458,0,50.326
		C0,67.516,8.821,76.79,24.654,76.79c12.78,0,18.888-5.992,18.888-5.992l-3.619-9.84c0,0-5.882,6.559-14.703,6.559
		c-7.803,0-13.345-6.785-13.345-17.643c0-13.91,7.01-18.887,13.91-18.887c9.951,0,13.117,6.446,15.833,14.703L45.237,57
		c3.619,10.97,10.403,19.791,29.969,19.791c14.026,0,23.524-4.297,23.524-15.606C98.73,52.024,93.528,47.273,83.803,45.011z"/>
</g>
<g>
</g>
<g>
</g>
<g>
</g>
<g>
</g>
<g>
</g>
<g>
</g>
<g>
</g>
<g>
</g>
<g>
</g>
<g>
</g>
<g>
</g>
<g>
</g>
<g>
</g>
<g>
</g>
<g>
</g>
</svg>
