<?xml version="1.0" encoding="UTF-8"?>
<svg xmlns="http://www.w3.org/2000/svg" xmlns:xlink="http://www.w3.org/1999/xlink" width="500pt" height="500pt" viewBox="0 0 500 500" version="1.1">
<g id="surface8395951">
<path style=" stroke:none;fill-rule:nonzero;fill:rgb(63.921571%,41.960785%,100%);fill-opacity:1;" d="M 245 20 C 158.007812 20 140 64.921875 140 90.9375 L 140 140 L 240 140 L 240 150 L 90.9375 150 C 57.929688 150 20 176.015625 20 250 C 20 323.984375 57.929688 350 90.9375 350 L 150 350 L 150 290 C 150 268.007812 168.007812 250 190 250 L 310 250 C 326.992188 250 340 236.992188 340 220 L 340 90.9375 C 340 55.9375 306.992188 20 245 20 Z M 200 70 C 211.015625 70 220 78.984375 220 90 C 220 101.015625 211.015625 110 200 110 C 188.984375 110 180 101.015625 180 90 C 180 78.984375 188.984375 70 200 70 Z M 350 150 L 350 220 C 350 241.992188 331.992188 260 310 260 L 190 260 C 173.007812 260 160 273.007812 160 290 L 160 409.0625 C 160 444.0625 193.007812 480 255 480 C 341.992188 480 360 435.078125 360 409.0625 L 360 360 L 260 360 L 260 350 L 409.0625 350 C 442.070312 350 480 323.984375 480 250 C 480 176.015625 442.070312 150 409.0625 150 Z M 300 390 C 311.015625 390 320 398.984375 320 410 C 320 421.015625 311.015625 430 300 430 C 288.984375 430 280 421.015625 280 410 C 280 398.984375 288.984375 390 300 390 Z M 300 390 "/>
</g>
</svg>
