<?xml version="1.0" encoding="UTF-8"?>
<svg xmlns="http://www.w3.org/2000/svg" xmlns:xlink="http://www.w3.org/1999/xlink" width="480pt" height="480pt" viewBox="0 0 480 480" version="1.1">
<g id="surface8412560">
<path style=" stroke:none;fill-rule:nonzero;fill:rgb(63.921571%,41.960785%,100%);fill-opacity:1;" d="M 40 40 L 40 440 L 440 440 L 440 40 Z M 95 227.5 L 120 227.5 L 120 120 L 95 120 L 95 87.5 L 180 87.5 L 180 120 L 155 120 L 155 227.5 L 180 227.5 L 180 260 L 95 260 Z M 230 385 L 80 385 L 80 360 L 230 360 Z M 320 197.5 C 320 220 315 262.5 260 262.5 C 230 262.5 213.699219 244.460938 207.5 237.078125 L 230.578125 210.699219 C 234.738281 215.320312 245 227.5 260 227.5 C 282.5 227.5 282.5 205 282.5 197.5 L 282.5 87.5 L 320 87.5 Z M 320 197.5 "/>
</g>
</svg>
