<?xml version="1.0" encoding="UTF-8"?>
<svg xmlns="http://www.w3.org/2000/svg" xmlns:xlink="http://www.w3.org/1999/xlink" width="500pt" height="500pt" viewBox="0 0 500 500" version="1.1">
<g id="surface2219713">
<path style=" stroke:none;fill-rule:nonzero;fill:rgb(63.921571%,41.960785%,100%);fill-opacity:1;" d="M 433.359375 40 L 66.679688 40 C 51.953125 40 40 51.953125 40 66.679688 L 40 433.320312 C 40 448.046875 51.953125 460 66.679688 460 L 433.320312 460 C 448.046875 460 460 448.046875 460 433.359375 L 460 66.679688 C 460 51.953125 448.046875 40 433.359375 40 Z M 270 361.835938 C 270 401.796875 246.5625 420 212.34375 420 C 181.40625 420 159.101562 399.257812 150 380 L 181.445312 360.976562 C 187.5 371.71875 196.71875 380 210 380 C 222.695312 380 230 375.039062 230 355.742188 L 230 230 L 270 230 Z M 356.757812 420 C 321.328125 420 301.210938 402.148438 290 380 L 320 360 C 328.164062 373.359375 337.070312 386.132812 355.898438 386.132812 C 371.71875 386.132812 380 378.242188 380 367.304688 C 380 354.257812 371.40625 349.609375 354.023438 341.992188 L 344.492188 337.890625 C 316.953125 326.171875 298.632812 311.484375 298.632812 280.390625 C 298.632812 251.796875 320.46875 230 354.53125 230 C 378.789062 230 396.210938 238.4375 408.789062 260.546875 L 379.101562 279.648438 C 372.539062 267.890625 365.507812 263.28125 354.53125 263.28125 C 343.359375 263.28125 336.289062 270.390625 336.289062 279.648438 C 336.289062 291.09375 343.359375 295.703125 359.726562 302.8125 L 369.257812 306.914062 C 401.71875 320.78125 420 334.960938 420 366.835938 C 420 401.171875 393.007812 420 356.757812 420 Z M 356.757812 420 "/>
</g>
</svg>
