<?xml version="1.0" encoding="UTF-8"?>
<svg xmlns="http://www.w3.org/2000/svg" xmlns:xlink="http://www.w3.org/1999/xlink" width="480pt" height="480pt" viewBox="0 0 480 480" version="1.1">
<g id="surface8397447">
<path style=" stroke:none;fill-rule:nonzero;fill:rgb(63.921571%,41.960785%,100%);fill-opacity:1;" d="M 268.90625 20 C 290.90625 63.859375 190.121094 90.902344 180.742188 127.421875 C 172.164062 160.980469 240.566406 200 240.625 200 C 230.226562 186.121094 222.707031 174.628906 212.265625 153.007812 C 194.625 116.449219 316.484375 78.738281 268.90625 20 Z M 340 80 C 340 80 263.996094 84.617188 260.117188 130.9375 C 258.398438 151.558594 280.082031 162.558594 280.703125 177.578125 C 281.222656 189.816406 267.734375 200 267.734375 200 C 267.734375 200 290.015625 196.589844 297.65625 177.890625 C 306.117188 157.152344 283.398438 142.011719 285.9375 125.390625 C 288.359375 109.511719 340 80 340 80 Z M 203.28125 200.039062 C 203.28125 200.039062 120 198.832031 120 222.8125 C 120 234.25 143.203125 240.609375 175.273438 242.929688 C 162.269531 243.5 143.984375 253.714844 143.984375 263.710938 C 143.984375 284.390625 242.046875 300.316406 314.648438 270.117188 L 289.53125 253.75 C 240.53125 270.375 150.472656 265.117188 176.171875 243.007812 C 214.328125 245.65625 264.960938 242.566406 306.992188 234.257812 C 306.992188 234.257812 324.695312 224.246094 330.234375 218.867188 C 279.175781 229.425781 165.742188 226.367188 165.742188 217.1875 C 165.742188 208.726562 203.28125 200.039062 203.28125 200.039062 Z M 371.875 200.039062 C 362.71875 199.640625 352.695312 202.679688 344.0625 209.0625 C 362.082031 205.023438 377.304688 216.488281 377.304688 229.726562 C 377.304688 259.488281 336.015625 287.695312 336.015625 287.695312 C 336.015625 287.695312 400 280.074219 400 231.132812 C 400 210.921875 387.132812 200.699219 371.875 200.039062 Z M 194.882812 286.835938 C 176.960938 286.835938 165.351562 299.277344 165.351562 308.398438 C 165.351562 336.617188 272.289062 337.605469 314.6875 308.90625 L 287.734375 291.523438 C 256.074219 306.542969 176.582031 308.597656 194.882812 286.835938 Z M 117.578125 333.867188 C 91.804688 333.039062 80 346.554688 80 357.578125 C 80 416.21875 360 413.375 360 353.476562 C 360 343.515625 349.15625 338.785156 345.234375 336.523438 C 368.09375 393.804688 113.4375 389.875 113.4375 356.054688 C 113.4375 348.355469 126.902344 340.523438 144.0625 344.101562 C 144.0625 344.101562 137.792969 336.636719 129.492188 335.15625 C 125.234375 334.402344 121.261719 333.984375 117.578125 333.867188 Z M 400 374.140625 C 355.980469 418.71875 234.816406 445.78125 122.65625 418.28125 C 235.335938 465.5 399.460938 428.839844 400 374.140625 Z M 400 374.140625 "/>
</g>
</svg>
